<?xml version="1.0" encoding="iso-8859-1"?>
<!-- Uploaded to: SVG Repo, www.svgrepo.com, Generator: SVG Repo Mixer Tools -->
<svg version="1.1" id="Layer_1" xmlns="http://www.w3.org/2000/svg" xmlns:xlink="http://www.w3.org/1999/xlink" 
	 viewBox="0 0 512.001 512.001" xml:space="preserve">
<path style="fill:#F15A24;" d="M127.987,460.134h376.175V172.016c0-66.357-53.793-120.15-120.151-120.15H127.987
	c-66.357,0-120.15,53.793-120.15,120.15v167.967C7.838,406.341,61.63,460.134,127.987,460.134z"/>
<path style="fill:#FBB03B;" d="M248.459,51.697h136.09c66.061,0,119.124,53.722,119.124,119.783v288.822H367.819V171.48
	C367.818,105.419,314.52,51.697,248.459,51.697z"/>
<rect x="71.88" y="123.919" style="fill:#F2F2F2;" width="376.251" height="264.172"/>
<rect x="71.88" y="123.919" style="fill:#B8B5AD;" width="128.078" height="264.172"/>
<rect x="95.892" y="147.934" style="fill:#84DCCF;" width="328.211" height="216.143"/>
<rect x="95.892" y="276.012" style="fill:#027EA8;" width="328.211" height="88.054"/>
<path style="fill:#F15A24;" d="M173.34,324.055c-3.461-7.282-5.398-15.428-5.398-24.026c0-30.948,25.089-56.036,56.036-56.036
	c22.365,0,41.669,13.101,50.658,32.049l-42.653,48.003L173.34,324.055z"/>
<polygon style="fill:#FBB03B;" points="95.895,324.449 231.984,324.449 298.695,256.369 328.047,284.453 376.149,236.705 
	424.249,285.353 424.249,324.449 "/>
<rect x="95.892" y="324.042" style="fill:#FFFFFF;" width="328.211" height="40.024"/>
<polygon style="fill:#F15A24;" points="376.178,243.993 376.178,292.024 408.2,268.008 "/>
<path d="M512,467.972H127.989C57.415,467.972,0,410.556,0,339.983V172.016C0,101.444,57.415,44.029,127.989,44.029h256.024
	c70.573,0,127.988,57.415,127.988,127.989v295.954H512z M127.989,59.704c-61.93,0-112.313,50.383-112.313,112.312v167.966
	c0,61.929,50.383,112.313,112.313,112.313h368.336V172.016c0-61.929-50.383-112.313-112.313-112.313H127.989V59.704z"/>
<path d="M455.964,395.925H64.042V116.076h391.922v279.849H455.964z M79.718,380.249h360.572V131.752H79.718V380.249z"/>
<g>
	<polygon style="fill:#FFFFFF;" points="135.822,204.271 120.147,204.271 120.147,171.875 247.64,171.875 247.64,187.551 
		135.822,187.551 	"/>
	<rect x="264.36" y="171.875" style="fill:#FFFFFF;" width="24.036" height="15.675"/>
</g>
<path d="M88.058,140.092v231.817h343.891V140.092H88.058z M416.272,155.767v110.334l-40.086-40.573l-48.2,47.853l-29.431-28.299
	l-20.548,20.888c-11.601-18.321-32.055-29.814-54.028-29.814c-35.221,0-63.875,28.654-63.875,63.874
	c0,5.492,0.703,10.857,2.053,16.06h-58.424V155.767H416.272z M178.525,316.089c-1.817-5.129-2.744-10.51-2.744-16.06
	c0-26.577,21.623-48.199,48.2-48.199c17.831,0,34.342,10.029,42.639,25.715l-37.919,38.545h-50.176V316.089z M103.733,356.234
	v-24.469h131.535l63.593-64.643l29.3,28.174l47.918-47.573l40.194,40.681v27.686H280.036v15.675h136.237v24.469H103.733z"/>
</svg>